<?xml version="1.0" encoding="UTF-8"?>
<svg width="1200pt" height="1200pt" version="1.1" viewBox="0 0 1200 1200" xmlns="http://www.w3.org/2000/svg">
 <path d="m408.72 460.56h444c33.121 0 60-26.879 60-60s-26.879-60-60-60h-444c-33.121 0-60 26.879-60 60s26.762 60 60 60z" fill="#67e7f9"/>
 <path d="m408.72 652.56h444c33.121 0 60-26.879 60-60s-26.879-60-60-60h-444c-33.121 0-60 26.879-60 60s26.762 60 60 60z" fill="#67e7f9"/>
 <path d="m408.72 844.56h444c33.121 0 60-26.879 60-60s-26.879-60-60-60h-444c-33.121 0-60 26.879-60 60s26.762 60 60 60z" fill="#67e7f9"/>
</svg>
