<?xml version="1.0" encoding="UTF-8"?>
<svg width="1200pt" height="1200pt" version="1.1" viewBox="0 0 1200 1200" xmlns="http://www.w3.org/2000/svg">
 <path d="m900 200.02h-600c-54.984 0-99.984 45-99.984 99.984v600c0 54.984 45 99.984 99.984 99.984h600c54.984 0 99.984-45 99.984-99.984v-600c0-54.984-45-99.984-99.984-99.984zm-123 505.97c-19.5 19.5-51.516 19.5-71.016 0l-105.98-105.98-105.98 105.98c-19.5 19.5-51.516 19.5-71.016 0s-19.5-51 0-70.5l141.52-141.52c19.5-19.5 51.516-19.5 71.016 0l141.52 141.52c19.5 19.5 19.5 51 0 70.5z" fill="#67e7f9"/>
</svg>
